<svg width="18" height="18" viewBox="0 0 18 18" fill="none" xmlns="http://www.w3.org/2000/svg">
<path d="M9.00002 0.666656C7.35185 0.666656 5.74068 1.1554 4.37027 2.07108C2.99986 2.98675 1.93176 4.28824 1.30103 5.81096C0.670298 7.33368 0.50527 9.00923 0.826813 10.6257C1.14836 12.2423 1.94203 13.7271 3.10747 14.8925C4.27291 16.058 5.75776 16.8517 7.37427 17.1732C8.99078 17.4947 10.6663 17.3297 12.1891 16.699C13.7118 16.0683 15.0133 15.0002 15.9289 13.6297C16.8446 12.2593 17.3334 10.6482 17.3334 8.99999C17.3334 7.90564 17.1178 6.82201 16.699 5.81096C16.2802 4.79991 15.6664 3.88125 14.8926 3.10743C14.1188 2.33361 13.2001 1.71978 12.1891 1.30099C11.178 0.882205 10.0944 0.666656 9.00002 0.666656ZM13.73 7.53082L8.73002 12.1142C8.57172 12.2593 8.36348 12.3377 8.14875 12.3331C7.93402 12.3284 7.72938 12.241 7.57752 12.0892L5.07752 9.58916C4.99793 9.51228 4.93445 9.42033 4.89077 9.31866C4.8471 9.21699 4.82411 9.10764 4.82315 8.99699C4.82219 8.88634 4.84327 8.77661 4.88517 8.6742C4.92707 8.57178 4.98895 8.47874 5.06719 8.40049C5.14544 8.32225 5.23848 8.26037 5.3409 8.21847C5.44331 8.17657 5.55304 8.15549 5.66369 8.15645C5.77434 8.15741 5.88369 8.1804 5.98536 8.22407C6.08703 8.26775 6.17898 8.33123 6.25586 8.41082L8.19169 10.3467L12.6034 6.30249C12.7662 6.15308 12.9818 6.07451 13.2026 6.08404C13.4235 6.09357 13.6315 6.19044 13.7809 6.35332C13.9303 6.51621 14.0088 6.73178 13.9993 6.9526C13.9898 7.17343 13.8929 7.38142 13.73 7.53082Z" fill="#EF6C1E"/>
</svg>
